<svg viewBox="0 0 330 200" xmlns="http://www.w3.org/2000/svg"><g><g><g><g><g><line x1="48.875" y1="177.828125" x2="43.875" y2="177.828125" style="visibility: inherit;" fill="rgb(0, 0, 0)" stroke="rgb(204, 204, 204)" stroke-width="1.3333333730697632px"></line><line x1="48.875" y1="160.04531249999997" x2="43.875" y2="160.04531249999997" style="visibility: inherit;" fill="rgb(0, 0, 0)" stroke="rgb(204, 204, 204)" stroke-width="1.3333333730697632px"></line><line x1="48.875" y1="142.26249999999996" x2="43.875" y2="142.26249999999996" style="visibility: inherit;" fill="rgb(0, 0, 0)" stroke="rgb(204, 204, 204)" stroke-width="1.3333333730697632px"></line><line x1="48.875" y1="124.47968749999994" x2="43.875" y2="124.47968749999994" style="visibility: inherit;" fill="rgb(0, 0, 0)" stroke="rgb(204, 204, 204)" stroke-width="1.3333333730697632px"></line><line x1="48.875" y1="106.69687499999992" x2="43.875" y2="106.69687499999992" style="visibility: inherit;" fill="rgb(0, 0, 0)" stroke="rgb(204, 204, 204)" stroke-width="1.3333333730697632px"></line><line x1="48.875" y1="88.9140625000001" x2="43.875" y2="88.9140625000001" style="visibility: inherit;" fill="rgb(0, 0, 0)" stroke="rgb(204, 204, 204)" stroke-width="1.3333333730697632px"></line><line x1="48.875" y1="71.13125000000008" x2="43.875" y2="71.13125000000008" style="visibility: inherit;" fill="rgb(0, 0, 0)" stroke="rgb(204, 204, 204)" stroke-width="1.3333333730697632px"></line><line x1="48.875" y1="53.348437500000074" x2="43.875" y2="53.348437500000074" style="visibility: inherit;" fill="rgb(0, 0, 0)" stroke="rgb(204, 204, 204)" stroke-width="1.3333333730697632px"></line><line x1="48.875" y1="35.56562500000004" x2="43.875" y2="35.56562500000004" style="visibility: inherit;" fill="rgb(0, 0, 0)" stroke="rgb(204, 204, 204)" stroke-width="1.3333333730697632px"></line><line x1="48.875" y1="17.782812500000006" x2="43.875" y2="17.782812500000006" style="visibility: inherit;" fill="rgb(0, 0, 0)" stroke="rgb(204, 204, 204)" stroke-width="1.3333333730697632px"></line><line x1="48.875" y1="0" x2="43.875" y2="0" style="visibility: inherit;" fill="rgb(0, 0, 0)" stroke="rgb(204, 204, 204)" stroke-width="1.3333333730697632px"></line></g><g transform="translate(38.875, 0)"><text x="0" y="177.828125" dx="0em" dy="0.3em" style="text-anchor: end; visibility: hidden; font-family: &quot;Helvetica Neue&quot;, sans-serif; font-size: 16px; font-weight: 200;" fill="rgb(50, 49, 63)" stroke="none" stroke-width="1.3333333730697632px">0.77</text><text x="0" y="160.04531249999997" dx="0em" dy="0.3em" style="text-anchor: end; visibility: inherit; font-family: &quot;Helvetica Neue&quot;, sans-serif; font-size: 16px; font-weight: 200;" fill="rgb(50, 49, 63)" stroke="none" stroke-width="1.3333333730697632px">0.78</text><text x="0" y="142.26249999999996" dx="0em" dy="0.3em" style="text-anchor: end; visibility: hidden; font-family: &quot;Helvetica Neue&quot;, sans-serif; font-size: 16px; font-weight: 200;" fill="rgb(50, 49, 63)" stroke="none" stroke-width="1.3333333730697632px">0.79</text><text x="0" y="124.47968749999994" dx="0em" dy="0.3em" style="text-anchor: end; visibility: inherit; font-family: &quot;Helvetica Neue&quot;, sans-serif; font-size: 16px; font-weight: 200;" fill="rgb(50, 49, 63)" stroke="none" stroke-width="1.3333333730697632px">0.8</text><text x="0" y="106.69687499999992" dx="0em" dy="0.3em" style="text-anchor: end; visibility: hidden; font-family: &quot;Helvetica Neue&quot;, sans-serif; font-size: 16px; font-weight: 200;" fill="rgb(50, 49, 63)" stroke="none" stroke-width="1.3333333730697632px">0.81</text><text x="0" y="88.9140625000001" dx="0em" dy="0.3em" style="text-anchor: end; visibility: inherit; font-family: &quot;Helvetica Neue&quot;, sans-serif; font-size: 16px; font-weight: 200;" fill="rgb(50, 49, 63)" stroke="none" stroke-width="1.3333333730697632px">0.82</text><text x="0" y="71.13125000000008" dx="0em" dy="0.3em" style="text-anchor: end; visibility: hidden; font-family: &quot;Helvetica Neue&quot;, sans-serif; font-size: 16px; font-weight: 200;" fill="rgb(50, 49, 63)" stroke="none" stroke-width="1.3333333730697632px">0.83</text><text x="0" y="53.348437500000074" dx="0em" dy="0.3em" style="text-anchor: end; visibility: inherit; font-family: &quot;Helvetica Neue&quot;, sans-serif; font-size: 16px; font-weight: 200;" fill="rgb(50, 49, 63)" stroke="none" stroke-width="1.3333333730697632px">0.84</text><text x="0" y="35.56562500000004" dx="0em" dy="0.3em" style="text-anchor: end; visibility: hidden; font-family: &quot;Helvetica Neue&quot;, sans-serif; font-size: 16px; font-weight: 200;" fill="rgb(50, 49, 63)" stroke="none" stroke-width="1.3333333730697632px">0.85</text><text x="0" y="17.782812500000006" dx="0em" dy="0.3em" style="text-anchor: end; visibility: inherit; font-family: &quot;Helvetica Neue&quot;, sans-serif; font-size: 16px; font-weight: 200;" fill="rgb(50, 49, 63)" stroke="none" stroke-width="1.3333333730697632px">0.86</text><text x="0" y="0" dx="0em" dy="0.3em" style="text-anchor: end; visibility: hidden; font-family: &quot;Helvetica Neue&quot;, sans-serif; font-size: 16px; font-weight: 200;" fill="rgb(50, 49, 63)" stroke="none" stroke-width="1.3333333730697632px">0.87</text></g><line x1="48.875" y1="0" x2="48.875" y2="177.828125" fill="rgb(0, 0, 0)" stroke="rgb(204, 204, 204)" stroke-width="1.3333333730697632px"></line></g></g><g transform="translate(48, 0)" clip-path="url(#clip_0)"><clipPath id="clip_0"><rect width="281" height="177"></rect></clipPath><g><g><g><line x1="0" y1="0" x2="0" y2="177.828125" fill="rgb(0, 0, 0)" stroke="rgb(60, 60, 60)" stroke-width="1.3333333730697632px" opacity="0.25"></line><line x1="23.427083333333332" y1="0" x2="23.427083333333332" y2="177.828125" fill="rgb(0, 0, 0)" stroke="rgb(60, 60, 60)" stroke-width="1.3333333730697632px" opacity="0.25"></line><line x1="46.854166666666664" y1="0" x2="46.854166666666664" y2="177.828125" fill="rgb(0, 0, 0)" stroke="rgb(60, 60, 60)" stroke-width="1.3333333730697632px" opacity="0.25"></line><line x1="70.28125" y1="0" x2="70.28125" y2="177.828125" fill="rgb(0, 0, 0)" stroke="rgb(60, 60, 60)" stroke-width="1.3333333730697632px" opacity="0.25"></line><line x1="93.70833333333333" y1="0" x2="93.70833333333333" y2="177.828125" fill="rgb(0, 0, 0)" stroke="rgb(60, 60, 60)" stroke-width="1.3333333730697632px" opacity="0.25"></line><line x1="117.13541666666667" y1="0" x2="117.13541666666667" y2="177.828125" fill="rgb(0, 0, 0)" stroke="rgb(60, 60, 60)" stroke-width="1.3333333730697632px" opacity="0.25"></line><line x1="140.5625" y1="0" x2="140.5625" y2="177.828125" fill="rgb(0, 0, 0)" stroke="rgb(60, 60, 60)" stroke-width="1.3333333730697632px" opacity="0.25"></line><line x1="163.98958333333334" y1="0" x2="163.98958333333334" y2="177.828125" fill="rgb(0, 0, 0)" stroke="rgb(60, 60, 60)" stroke-width="1.3333333730697632px" opacity="0.25"></line><line x1="187.41666666666666" y1="0" x2="187.41666666666666" y2="177.828125" fill="rgb(0, 0, 0)" stroke="rgb(60, 60, 60)" stroke-width="1.3333333730697632px" opacity="0.25"></line><line x1="210.84375" y1="0" x2="210.84375" y2="177.828125" fill="rgb(0, 0, 0)" stroke="rgb(60, 60, 60)" stroke-width="1.3333333730697632px" opacity="0.25"></line><line x1="234.27083333333334" y1="0" x2="234.27083333333334" y2="177.828125" fill="rgb(0, 0, 0)" stroke="rgb(60, 60, 60)" stroke-width="1.3333333730697632px" opacity="0.25"></line><line x1="257.69791666666663" y1="0" x2="257.69791666666663" y2="177.828125" fill="rgb(0, 0, 0)" stroke="rgb(60, 60, 60)" stroke-width="1.3333333730697632px" opacity="0.25"></line><line x1="281.125" y1="0" x2="281.125" y2="177.828125" fill="rgb(0, 0, 0)" stroke="rgb(60, 60, 60)" stroke-width="1.3333333730697632px" opacity="0.25"></line></g><g><line x1="0" y1="177.828125" x2="281.125" y2="177.828125" fill="rgb(0, 0, 0)" stroke="rgb(60, 60, 60)" stroke-width="1.3333333730697632px" opacity="0.25"></line><line x1="0" y1="160.04531249999997" x2="281.125" y2="160.04531249999997" fill="rgb(0, 0, 0)" stroke="rgb(60, 60, 60)" stroke-width="1.3333333730697632px" opacity="0.25"></line><line x1="0" y1="142.26249999999996" x2="281.125" y2="142.26249999999996" fill="rgb(0, 0, 0)" stroke="rgb(60, 60, 60)" stroke-width="1.3333333730697632px" opacity="0.25"></line><line x1="0" y1="124.47968749999994" x2="281.125" y2="124.47968749999994" fill="rgb(0, 0, 0)" stroke="rgb(60, 60, 60)" stroke-width="1.3333333730697632px" opacity="0.25"></line><line x1="0" y1="106.69687499999992" x2="281.125" y2="106.69687499999992" fill="rgb(0, 0, 0)" stroke="rgb(60, 60, 60)" stroke-width="1.3333333730697632px" opacity="0.25"></line><line x1="0" y1="88.9140625000001" x2="281.125" y2="88.9140625000001" fill="rgb(0, 0, 0)" stroke="rgb(60, 60, 60)" stroke-width="1.3333333730697632px" opacity="0.25"></line><line x1="0" y1="71.13125000000008" x2="281.125" y2="71.13125000000008" fill="rgb(0, 0, 0)" stroke="rgb(60, 60, 60)" stroke-width="1.3333333730697632px" opacity="0.25"></line><line x1="0" y1="53.348437500000074" x2="281.125" y2="53.348437500000074" fill="rgb(0, 0, 0)" stroke="rgb(60, 60, 60)" stroke-width="1.3333333730697632px" opacity="0.25"></line><line x1="0" y1="35.56562500000004" x2="281.125" y2="35.56562500000004" fill="rgb(0, 0, 0)" stroke="rgb(60, 60, 60)" stroke-width="1.3333333730697632px" opacity="0.25"></line><line x1="0" y1="17.782812500000006" x2="281.125" y2="17.782812500000006" fill="rgb(0, 0, 0)" stroke="rgb(60, 60, 60)" stroke-width="1.3333333730697632px" opacity="0.25"></line><line x1="0" y1="0" x2="281.125" y2="0" fill="rgb(0, 0, 0)" stroke="rgb(60, 60, 60)" stroke-width="1.3333333730697632px" opacity="0.25"></line></g></g></g><g><g><line x1="0" y1="1547.1046875000004" x2="281.125" y2="1547.1046875000004" fill="rgb(0, 0, 0)" stroke="rgb(153, 153, 153)" stroke-width="2px"></line></g></g><g><g><line x1="23.427083333333332" y1="0" x2="23.427083333333332" y2="177.828125" fill="rgb(0, 0, 0)" stroke="rgb(153, 153, 153)" stroke-width="2px"></line></g></g><g><g><g><g><g><path stroke="rgb(0, 119, 187)" stroke-width="2.6666667461395264px" d="M23.427083333333332,184.39034244529907L28.1125,163.11917097209957L32.797916666666666,141.57387838403943L37.483333333333334,129.1496317476007L42.168749999999996,111.11331152566369L46.854166666666664,95.94501084666696L51.53958333333333,84.41830449116475L56.225,74.52462635605248L60.91041666666667,72.89593791677339L65.59583333333333,67.32694090807922L70.28125,64.19120926855275L74.96666666666667,62.43068534176629L79.65208333333334,57.97146142751707L84.33749999999999,56.39751138449941L89.02291666666666,57.60882357479342L93.70833333333333,60.4430404951126L98.39375,62.760004916011454L103.07916666666667,59.24480344348255L107.76458333333333,52.78451470262242L112.45,48.778555436779186L117.13541666666667,49.41928297117161L121.82083333333334,50.347169174465904L126.50625000000001,45.38241928838866L131.19166666666666,40.26971671006578L135.87708333333333,43.247040329715816L140.5625,44.383261869596424L145.24791666666667,42.93773776149237L149.93333333333334,41.086843366841606L154.61875,40.29305951251311L159.30416666666667,40.37694566258847L163.98958333333334,40.72066827957775L168.67499999999998,36.60909473759236L173.36041666666668,40.92393267381422L178.04583333333332,39.70519792032212L182.73125000000002,39.133965367343876L187.41666666666666,37.14747362994626L192.10208333333333,38.80965307035606L196.7875,35.945944950548125L201.47291666666666,35.06795431481922L206.15833333333333,37.0485073988217L210.84375,34.3424566260376L215.52916666666667,32.48212075986726L220.21458333333334,29.625458281903747L224.9,33.08281458745847L229.58541666666667,28.18207171228522L234.27083333333334,28.395790149237L238.95624999999998,24.70633572264549L243.64166666666668,24.186444345844308L248.32708333333332,25.148173685076358L253.01250000000002,24.824984557746717" style="fill: none;" fill="none"></path></g><g><path stroke="rgb(255, 112, 67)" stroke-width="2.6666667461395264px" d="M28.1125,219.60660438770412L32.797916666666666,176.94624056497557L37.483333333333334,146.2916420260597L42.168749999999996,123.45684393799809L46.854166666666664,106.25623276720526L51.53958333333333,94.06310671846707L56.225,85.47817535789756L60.91041666666667,78.79695841907481L65.59583333333333,74.08020666347947L70.28125,71.00746173396848L74.96666666666667,68.1125385421663L79.65208333333334,65.52411057606152L84.33749999999999,63.199918165046725L89.02291666666666,60.83419077069361L93.70833333333333,58.77012116978938L98.39375,57.064328228583605L103.07916666666667,55.42167366524649L107.76458333333333,54.10355882044176L112.45,52.938484649729304L117.13541666666667,51.74098872772866L121.82083333333334,50.541544088950474L126.50625000000001,49.86937301699342L131.19166666666666,48.94178344467022L135.87708333333333,48.12516533268891L140.5625,47.02255061389559L145.24791666666667,46.05338859947719L149.93333333333334,45.45188037973679L154.61875,44.86427601381095L159.30416666666667,43.40475620639492L163.98958333333334,42.29645165412393L168.67499999999998,41.13300123005433L173.36041666666668,40.3065937088048L178.04583333333332,39.088040923200396L182.73125000000002,38.49113985294525L187.41666666666666,37.67536028583481L192.10208333333333,37.13755936772358L196.7875,36.44059343258465L201.47291666666666,35.50813184661493L206.15833333333333,34.78109986197782L210.84375,33.798079741326546L215.52916666666667,32.85649537209693L220.21458333333334,32.090665258925725L224.9,31.1652183486178L229.58541666666667,30.487421344040172L234.27083333333334,29.590585309847995L238.95624999999998,28.82658965545113L243.64166666666668,28.275680854798054L248.32708333333332,27.77257763184258L253.01250000000002,27.078962531156435" style="fill: none;" fill="none"></path></g></g></g></g><g opacity="0.20000000298023224"><g><g><g><path stroke="rgb(0, 119, 187)" stroke-width="2.6666667461395264px" d="M23.427083333333332,184.39034244529907L28.1125,150.35646808817984L32.797916666666666,120.89039749950172L37.483333333333334,114.53871770314873L42.168749999999996,87.56509184390308L46.854166666666664,74.96179041936995L51.53958333333333,67.93492997549475L56.225,60.09954865574838L60.91041666666667,70.49393882527949L65.59583333333333,59.05762938335539L70.28125,59.51605266444386L74.96666666666667,59.79948014505209L79.65208333333334,51.297185695916426L84.33749999999999,54.03966985195876L89.02291666666666,59.42436800822617L93.70833333333333,64.69236696623267L98.39375,66.23447108566762L103.07916666666667,53.97289374396206L107.76458333333333,43.095065751299245L112.45,42.769982698559744L117.13541666666667,50.38033913373948L121.82083333333334,51.73896794691683L126.50625000000001,37.935392479598505L131.19166666666666,32.60072340741752L135.87708333333333,47.71300459764899L140.5625,46.087589333951485L145.24791666666667,40.76945529803632L149.93333333333334,38.310504616424424L154.61875,39.10238446220754L159.30416666666667,40.50277484133838L163.98958333333334,41.23625209107993L168.67499999999998,30.441735242679698L173.36041666666668,47.396189063042414L178.04583333333332,37.87709587737916L182.73125000000002,38.27711656242607L187.41666666666666,34.167736075073464L192.10208333333333,41.30292220525442L196.7875,31.650382797420008L201.47291666666666,33.75096836611627L206.15833333333333,40.0193370182067L210.84375,30.28338047228752L215.52916666666667,29.691616962850077L220.21458333333334,25.34046456702052L224.9,38.26884904429315L229.58541666666667,20.83095740079878L234.27083333333334,28.716367804631574L238.95624999999998,19.172154083102924L243.64166666666668,23.40660728067158L248.32708333333332,26.590767693892104L253.01250000000002,24.340200866758806" style="fill: none;" fill="none"></path></g><g><path stroke="rgb(255, 112, 67)" stroke-width="2.6666667461395264px" d="M23.427083333333332,307.985180798173L28.1125,166.57945854142312L32.797916666666666,135.9922912951559L37.483333333333334,110.24183414429427L42.168749999999996,93.6437315542251L46.854166666666664,82.46159529797734L51.53958333333333,76.62674137875439L56.225,72.96126301884652L60.91041666666667,68.94346119388939L65.59583333333333,67.07638001553715L70.28125,66.42621391005815L74.96666666666667,63.78590779863299L79.65208333333334,61.64992029331626L84.33749999999999,59.71818288341166L89.02291666666666,57.28838050290943L93.70833333333333,55.67547251023353L98.39375,54.50636065118016L103.07916666666667,52.95810889005662L107.76458333333333,52.126587354764354L112.45,51.190979886055004L117.13541666666667,49.94481051824988L121.82083333333334,48.74241659902037L126.50625000000001,48.8611296799034L131.19166666666666,47.55041007436813L135.87708333333333,46.90024396888913L140.5625,45.36863323785366L145.24791666666667,44.59964805766941L149.93333333333334,44.549618973582994L154.61875,43.98287000618873L159.30416666666667,41.215477301925404L163.98958333333334,40.63399519324301L168.67499999999998,39.387825825437886L173.36041666666668,39.066982525587065L178.04583333333332,37.260211832076294L182.73125000000002,37.59578827321528L187.41666666666666,36.45169095620511L192.10208333333333,36.33085799887775L196.7875,35.39514453634618L201.47291666666666,34.10943947285412L206.15833333333333,33.690551887452585L210.84375,32.323549562320096L215.52916666666667,31.44411881938575L220.21458333333334,30.941920089721663L224.9,29.77704798355697L229.58541666666667,29.470725837349875L234.27083333333334,28.24533125869928L238.95624999999998,27.68059617392717L243.64166666666668,27.449317653849704L248.32708333333332,27.017922797426564L253.01250000000002,26.0385398801416" style="fill: none;" fill="none"></path></g></g></g></g></g></g><g transform="translate(48, 177)" clip-path="url(#clip_1)"><clipPath id="clip_1"><rect width="281" height="22"></rect></clipPath><g><g><line x1="0" y1="0" x2="0" y2="5" style="visibility: inherit;" fill="rgb(0, 0, 0)" stroke="rgb(204, 204, 204)" stroke-width="1.3333333730697632px"></line><line x1="23.427083333333332" y1="0" x2="23.427083333333332" y2="5" style="visibility: inherit;" fill="rgb(0, 0, 0)" stroke="rgb(204, 204, 204)" stroke-width="1.3333333730697632px"></line><line x1="46.854166666666664" y1="0" x2="46.854166666666664" y2="5" style="visibility: inherit;" fill="rgb(0, 0, 0)" stroke="rgb(204, 204, 204)" stroke-width="1.3333333730697632px"></line><line x1="70.28125" y1="0" x2="70.28125" y2="5" style="visibility: inherit;" fill="rgb(0, 0, 0)" stroke="rgb(204, 204, 204)" stroke-width="1.3333333730697632px"></line><line x1="93.70833333333333" y1="0" x2="93.70833333333333" y2="5" style="visibility: inherit;" fill="rgb(0, 0, 0)" stroke="rgb(204, 204, 204)" stroke-width="1.3333333730697632px"></line><line x1="117.13541666666667" y1="0" x2="117.13541666666667" y2="5" style="visibility: inherit;" fill="rgb(0, 0, 0)" stroke="rgb(204, 204, 204)" stroke-width="1.3333333730697632px"></line><line x1="140.5625" y1="0" x2="140.5625" y2="5" style="visibility: inherit;" fill="rgb(0, 0, 0)" stroke="rgb(204, 204, 204)" stroke-width="1.3333333730697632px"></line><line x1="163.98958333333334" y1="0" x2="163.98958333333334" y2="5" style="visibility: inherit;" fill="rgb(0, 0, 0)" stroke="rgb(204, 204, 204)" stroke-width="1.3333333730697632px"></line><line x1="187.41666666666666" y1="0" x2="187.41666666666666" y2="5" style="visibility: inherit;" fill="rgb(0, 0, 0)" stroke="rgb(204, 204, 204)" stroke-width="1.3333333730697632px"></line><line x1="210.84375" y1="0" x2="210.84375" y2="5" style="visibility: inherit;" fill="rgb(0, 0, 0)" stroke="rgb(204, 204, 204)" stroke-width="1.3333333730697632px"></line><line x1="234.27083333333334" y1="0" x2="234.27083333333334" y2="5" style="visibility: inherit;" fill="rgb(0, 0, 0)" stroke="rgb(204, 204, 204)" stroke-width="1.3333333730697632px"></line><line x1="257.69791666666663" y1="0" x2="257.69791666666663" y2="5" style="visibility: inherit;" fill="rgb(0, 0, 0)" stroke="rgb(204, 204, 204)" stroke-width="1.3333333730697632px"></line><line x1="281.125" y1="0" x2="281.125" y2="5" style="visibility: inherit;" fill="rgb(0, 0, 0)" stroke="rgb(204, 204, 204)" stroke-width="1.3333333730697632px"></line></g><g transform="translate(0, 8)"><text x="0" y="0" dx="0em" dy="0.95em" style="text-anchor: middle; visibility: hidden; font-family: &quot;Helvetica Neue&quot;, sans-serif; font-size: 16px; font-weight: 200;" fill="rgb(50, 49, 63)" stroke="none" stroke-width="1.3333333730697632px">-5</text><text x="23.427083333333332" y="0" dx="0em" dy="0.95em" style="text-anchor: middle; visibility: inherit; font-family: &quot;Helvetica Neue&quot;, sans-serif; font-size: 16px; font-weight: 200;" fill="rgb(50, 49, 63)" stroke="none" stroke-width="1.3333333730697632px">0</text><text x="46.854166666666664" y="0" dx="0em" dy="0.95em" style="text-anchor: middle; visibility: inherit; font-family: &quot;Helvetica Neue&quot;, sans-serif; font-size: 16px; font-weight: 200;" fill="rgb(50, 49, 63)" stroke="none" stroke-width="1.3333333730697632px">5</text><text x="70.28125" y="0" dx="0em" dy="0.95em" style="text-anchor: middle; visibility: inherit; font-family: &quot;Helvetica Neue&quot;, sans-serif; font-size: 16px; font-weight: 200;" fill="rgb(50, 49, 63)" stroke="none" stroke-width="1.3333333730697632px">10</text><text x="93.70833333333333" y="0" dx="0em" dy="0.95em" style="text-anchor: middle; visibility: inherit; font-family: &quot;Helvetica Neue&quot;, sans-serif; font-size: 16px; font-weight: 200;" fill="rgb(50, 49, 63)" stroke="none" stroke-width="1.3333333730697632px">15</text><text x="117.13541666666667" y="0" dx="0em" dy="0.95em" style="text-anchor: middle; visibility: inherit; font-family: &quot;Helvetica Neue&quot;, sans-serif; font-size: 16px; font-weight: 200;" fill="rgb(50, 49, 63)" stroke="none" stroke-width="1.3333333730697632px">20</text><text x="140.5625" y="0" dx="0em" dy="0.95em" style="text-anchor: middle; visibility: inherit; font-family: &quot;Helvetica Neue&quot;, sans-serif; font-size: 16px; font-weight: 200;" fill="rgb(50, 49, 63)" stroke="none" stroke-width="1.3333333730697632px">25</text><text x="163.98958333333334" y="0" dx="0em" dy="0.95em" style="text-anchor: middle; visibility: inherit; font-family: &quot;Helvetica Neue&quot;, sans-serif; font-size: 16px; font-weight: 200;" fill="rgb(50, 49, 63)" stroke="none" stroke-width="1.3333333730697632px">30</text><text x="187.41666666666666" y="0" dx="0em" dy="0.95em" style="text-anchor: middle; visibility: inherit; font-family: &quot;Helvetica Neue&quot;, sans-serif; font-size: 16px; font-weight: 200;" fill="rgb(50, 49, 63)" stroke="none" stroke-width="1.3333333730697632px">35</text><text x="210.84375" y="0" dx="0em" dy="0.95em" style="text-anchor: middle; visibility: inherit; font-family: &quot;Helvetica Neue&quot;, sans-serif; font-size: 16px; font-weight: 200;" fill="rgb(50, 49, 63)" stroke="none" stroke-width="1.3333333730697632px">40</text><text x="234.27083333333334" y="0" dx="0em" dy="0.95em" style="text-anchor: middle; visibility: inherit; font-family: &quot;Helvetica Neue&quot;, sans-serif; font-size: 16px; font-weight: 200;" fill="rgb(50, 49, 63)" stroke="none" stroke-width="1.3333333730697632px">45</text><text x="257.69791666666663" y="0" dx="0em" dy="0.95em" style="text-anchor: middle; visibility: inherit; font-family: &quot;Helvetica Neue&quot;, sans-serif; font-size: 16px; font-weight: 200;" fill="rgb(50, 49, 63)" stroke="none" stroke-width="1.3333333730697632px">50</text><text x="281.125" y="0" dx="0em" dy="0.95em" style="text-anchor: middle; visibility: hidden; font-family: &quot;Helvetica Neue&quot;, sans-serif; font-size: 16px; font-weight: 200;" fill="rgb(50, 49, 63)" stroke="none" stroke-width="1.3333333730697632px">55</text></g><line x1="0" y1="0" x2="281.125" y2="0" fill="rgb(0, 0, 0)" stroke="rgb(204, 204, 204)" stroke-width="1.3333333730697632px"></line></g></g></g></g></svg>