<svg viewBox="0 0 330 200" xmlns="http://www.w3.org/2000/svg"><g><g><g><g><g><line x1="48.875" y1="177.828125" x2="43.875" y2="177.828125" style="visibility: inherit;" fill="rgb(0, 0, 0)" stroke="rgb(204, 204, 204)" stroke-width="1.3333333730697632px"></line><line x1="48.875" y1="165.12611607142856" x2="43.875" y2="165.12611607142856" style="visibility: inherit;" fill="rgb(0, 0, 0)" stroke="rgb(204, 204, 204)" stroke-width="1.3333333730697632px"></line><line x1="48.875" y1="152.42410714285717" x2="43.875" y2="152.42410714285717" style="visibility: inherit;" fill="rgb(0, 0, 0)" stroke="rgb(204, 204, 204)" stroke-width="1.3333333730697632px"></line><line x1="48.875" y1="139.72209821428572" x2="43.875" y2="139.72209821428572" style="visibility: inherit;" fill="rgb(0, 0, 0)" stroke="rgb(204, 204, 204)" stroke-width="1.3333333730697632px"></line><line x1="48.875" y1="127.02008928571428" x2="43.875" y2="127.02008928571428" style="visibility: inherit;" fill="rgb(0, 0, 0)" stroke="rgb(204, 204, 204)" stroke-width="1.3333333730697632px"></line><line x1="48.875" y1="114.31808035714286" x2="43.875" y2="114.31808035714286" style="visibility: inherit;" fill="rgb(0, 0, 0)" stroke="rgb(204, 204, 204)" stroke-width="1.3333333730697632px"></line><line x1="48.875" y1="101.61607142857142" x2="43.875" y2="101.61607142857142" style="visibility: inherit;" fill="rgb(0, 0, 0)" stroke="rgb(204, 204, 204)" stroke-width="1.3333333730697632px"></line><line x1="48.875" y1="88.91406249999999" x2="43.875" y2="88.91406249999999" style="visibility: inherit;" fill="rgb(0, 0, 0)" stroke="rgb(204, 204, 204)" stroke-width="1.3333333730697632px"></line><line x1="48.875" y1="76.21205357142858" x2="43.875" y2="76.21205357142858" style="visibility: inherit;" fill="rgb(0, 0, 0)" stroke="rgb(204, 204, 204)" stroke-width="1.3333333730697632px"></line><line x1="48.875" y1="63.51004464285714" x2="43.875" y2="63.51004464285714" style="visibility: inherit;" fill="rgb(0, 0, 0)" stroke="rgb(204, 204, 204)" stroke-width="1.3333333730697632px"></line><line x1="48.875" y1="50.808035714285694" x2="43.875" y2="50.808035714285694" style="visibility: inherit;" fill="rgb(0, 0, 0)" stroke="rgb(204, 204, 204)" stroke-width="1.3333333730697632px"></line><line x1="48.875" y1="38.10602678571425" x2="43.875" y2="38.10602678571425" style="visibility: inherit;" fill="rgb(0, 0, 0)" stroke="rgb(204, 204, 204)" stroke-width="1.3333333730697632px"></line><line x1="48.875" y1="25.404017857142804" x2="43.875" y2="25.404017857142804" style="visibility: inherit;" fill="rgb(0, 0, 0)" stroke="rgb(204, 204, 204)" stroke-width="1.3333333730697632px"></line><line x1="48.875" y1="12.702008928571445" x2="43.875" y2="12.702008928571445" style="visibility: inherit;" fill="rgb(0, 0, 0)" stroke="rgb(204, 204, 204)" stroke-width="1.3333333730697632px"></line><line x1="48.875" y1="0" x2="43.875" y2="0" style="visibility: inherit;" fill="rgb(0, 0, 0)" stroke="rgb(204, 204, 204)" stroke-width="1.3333333730697632px"></line></g><g transform="translate(38.875, 0)"><text x="0" y="177.828125" dx="0em" dy="0.3em" style="text-anchor: end; visibility: hidden; font-family: &quot;Helvetica Neue&quot;, sans-serif; font-size: 16px; font-weight: 200;" fill="rgb(50, 49, 63)" stroke="none" stroke-width="1.3333333730697632px">0.32</text><text x="0" y="165.12611607142856" dx="0em" dy="0.3em" style="text-anchor: end; visibility: inherit; font-family: &quot;Helvetica Neue&quot;, sans-serif; font-size: 16px; font-weight: 200;" fill="rgb(50, 49, 63)" stroke="none" stroke-width="1.3333333730697632px">0.34</text><text x="0" y="152.42410714285717" dx="0em" dy="0.3em" style="text-anchor: end; visibility: hidden; font-family: &quot;Helvetica Neue&quot;, sans-serif; font-size: 16px; font-weight: 200;" fill="rgb(50, 49, 63)" stroke="none" stroke-width="1.3333333730697632px">0.36</text><text x="0" y="139.72209821428572" dx="0em" dy="0.3em" style="text-anchor: end; visibility: inherit; font-family: &quot;Helvetica Neue&quot;, sans-serif; font-size: 16px; font-weight: 200;" fill="rgb(50, 49, 63)" stroke="none" stroke-width="1.3333333730697632px">0.38</text><text x="0" y="127.02008928571428" dx="0em" dy="0.3em" style="text-anchor: end; visibility: hidden; font-family: &quot;Helvetica Neue&quot;, sans-serif; font-size: 16px; font-weight: 200;" fill="rgb(50, 49, 63)" stroke="none" stroke-width="1.3333333730697632px">0.4</text><text x="0" y="114.31808035714286" dx="0em" dy="0.3em" style="text-anchor: end; visibility: inherit; font-family: &quot;Helvetica Neue&quot;, sans-serif; font-size: 16px; font-weight: 200;" fill="rgb(50, 49, 63)" stroke="none" stroke-width="1.3333333730697632px">0.42</text><text x="0" y="101.61607142857142" dx="0em" dy="0.3em" style="text-anchor: end; visibility: hidden; font-family: &quot;Helvetica Neue&quot;, sans-serif; font-size: 16px; font-weight: 200;" fill="rgb(50, 49, 63)" stroke="none" stroke-width="1.3333333730697632px">0.44</text><text x="0" y="88.91406249999999" dx="0em" dy="0.3em" style="text-anchor: end; visibility: inherit; font-family: &quot;Helvetica Neue&quot;, sans-serif; font-size: 16px; font-weight: 200;" fill="rgb(50, 49, 63)" stroke="none" stroke-width="1.3333333730697632px">0.46</text><text x="0" y="76.21205357142858" dx="0em" dy="0.3em" style="text-anchor: end; visibility: hidden; font-family: &quot;Helvetica Neue&quot;, sans-serif; font-size: 16px; font-weight: 200;" fill="rgb(50, 49, 63)" stroke="none" stroke-width="1.3333333730697632px">0.48</text><text x="0" y="63.51004464285714" dx="0em" dy="0.3em" style="text-anchor: end; visibility: inherit; font-family: &quot;Helvetica Neue&quot;, sans-serif; font-size: 16px; font-weight: 200;" fill="rgb(50, 49, 63)" stroke="none" stroke-width="1.3333333730697632px">0.5</text><text x="0" y="50.808035714285694" dx="0em" dy="0.3em" style="text-anchor: end; visibility: hidden; font-family: &quot;Helvetica Neue&quot;, sans-serif; font-size: 16px; font-weight: 200;" fill="rgb(50, 49, 63)" stroke="none" stroke-width="1.3333333730697632px">0.52</text><text x="0" y="38.10602678571425" dx="0em" dy="0.3em" style="text-anchor: end; visibility: inherit; font-family: &quot;Helvetica Neue&quot;, sans-serif; font-size: 16px; font-weight: 200;" fill="rgb(50, 49, 63)" stroke="none" stroke-width="1.3333333730697632px">0.54</text><text x="0" y="25.404017857142804" dx="0em" dy="0.3em" style="text-anchor: end; visibility: hidden; font-family: &quot;Helvetica Neue&quot;, sans-serif; font-size: 16px; font-weight: 200;" fill="rgb(50, 49, 63)" stroke="none" stroke-width="1.3333333730697632px">0.56</text><text x="0" y="12.702008928571445" dx="0em" dy="0.3em" style="text-anchor: end; visibility: inherit; font-family: &quot;Helvetica Neue&quot;, sans-serif; font-size: 16px; font-weight: 200;" fill="rgb(50, 49, 63)" stroke="none" stroke-width="1.3333333730697632px">0.58</text><text x="0" y="0" dx="0em" dy="0.3em" style="text-anchor: end; visibility: hidden; font-family: &quot;Helvetica Neue&quot;, sans-serif; font-size: 16px; font-weight: 200;" fill="rgb(50, 49, 63)" stroke="none" stroke-width="1.3333333730697632px">0.6</text></g><line x1="48.875" y1="0" x2="48.875" y2="177.828125" fill="rgb(0, 0, 0)" stroke="rgb(204, 204, 204)" stroke-width="1.3333333730697632px"></line></g></g><g transform="translate(48, 0)" clip-path="url(#clip_0)"><clipPath id="clip_0"><rect width="281" height="177"></rect></clipPath><g><g><g><line x1="0" y1="0" x2="0" y2="177.828125" fill="rgb(0, 0, 0)" stroke="rgb(60, 60, 60)" stroke-width="1.3333333730697632px" opacity="0.25"></line><line x1="23.427083333333332" y1="0" x2="23.427083333333332" y2="177.828125" fill="rgb(0, 0, 0)" stroke="rgb(60, 60, 60)" stroke-width="1.3333333730697632px" opacity="0.25"></line><line x1="46.854166666666664" y1="0" x2="46.854166666666664" y2="177.828125" fill="rgb(0, 0, 0)" stroke="rgb(60, 60, 60)" stroke-width="1.3333333730697632px" opacity="0.25"></line><line x1="70.28125" y1="0" x2="70.28125" y2="177.828125" fill="rgb(0, 0, 0)" stroke="rgb(60, 60, 60)" stroke-width="1.3333333730697632px" opacity="0.25"></line><line x1="93.70833333333333" y1="0" x2="93.70833333333333" y2="177.828125" fill="rgb(0, 0, 0)" stroke="rgb(60, 60, 60)" stroke-width="1.3333333730697632px" opacity="0.25"></line><line x1="117.13541666666667" y1="0" x2="117.13541666666667" y2="177.828125" fill="rgb(0, 0, 0)" stroke="rgb(60, 60, 60)" stroke-width="1.3333333730697632px" opacity="0.25"></line><line x1="140.5625" y1="0" x2="140.5625" y2="177.828125" fill="rgb(0, 0, 0)" stroke="rgb(60, 60, 60)" stroke-width="1.3333333730697632px" opacity="0.25"></line><line x1="163.98958333333334" y1="0" x2="163.98958333333334" y2="177.828125" fill="rgb(0, 0, 0)" stroke="rgb(60, 60, 60)" stroke-width="1.3333333730697632px" opacity="0.25"></line><line x1="187.41666666666666" y1="0" x2="187.41666666666666" y2="177.828125" fill="rgb(0, 0, 0)" stroke="rgb(60, 60, 60)" stroke-width="1.3333333730697632px" opacity="0.25"></line><line x1="210.84375" y1="0" x2="210.84375" y2="177.828125" fill="rgb(0, 0, 0)" stroke="rgb(60, 60, 60)" stroke-width="1.3333333730697632px" opacity="0.25"></line><line x1="234.27083333333334" y1="0" x2="234.27083333333334" y2="177.828125" fill="rgb(0, 0, 0)" stroke="rgb(60, 60, 60)" stroke-width="1.3333333730697632px" opacity="0.25"></line><line x1="257.69791666666663" y1="0" x2="257.69791666666663" y2="177.828125" fill="rgb(0, 0, 0)" stroke="rgb(60, 60, 60)" stroke-width="1.3333333730697632px" opacity="0.25"></line><line x1="281.125" y1="0" x2="281.125" y2="177.828125" fill="rgb(0, 0, 0)" stroke="rgb(60, 60, 60)" stroke-width="1.3333333730697632px" opacity="0.25"></line></g><g><line x1="0" y1="177.828125" x2="281.125" y2="177.828125" fill="rgb(0, 0, 0)" stroke="rgb(60, 60, 60)" stroke-width="1.3333333730697632px" opacity="0.25"></line><line x1="0" y1="165.12611607142856" x2="281.125" y2="165.12611607142856" fill="rgb(0, 0, 0)" stroke="rgb(60, 60, 60)" stroke-width="1.3333333730697632px" opacity="0.25"></line><line x1="0" y1="152.42410714285717" x2="281.125" y2="152.42410714285717" fill="rgb(0, 0, 0)" stroke="rgb(60, 60, 60)" stroke-width="1.3333333730697632px" opacity="0.25"></line><line x1="0" y1="139.72209821428572" x2="281.125" y2="139.72209821428572" fill="rgb(0, 0, 0)" stroke="rgb(60, 60, 60)" stroke-width="1.3333333730697632px" opacity="0.25"></line><line x1="0" y1="127.02008928571428" x2="281.125" y2="127.02008928571428" fill="rgb(0, 0, 0)" stroke="rgb(60, 60, 60)" stroke-width="1.3333333730697632px" opacity="0.25"></line><line x1="0" y1="114.31808035714286" x2="281.125" y2="114.31808035714286" fill="rgb(0, 0, 0)" stroke="rgb(60, 60, 60)" stroke-width="1.3333333730697632px" opacity="0.25"></line><line x1="0" y1="101.61607142857142" x2="281.125" y2="101.61607142857142" fill="rgb(0, 0, 0)" stroke="rgb(60, 60, 60)" stroke-width="1.3333333730697632px" opacity="0.25"></line><line x1="0" y1="88.91406249999999" x2="281.125" y2="88.91406249999999" fill="rgb(0, 0, 0)" stroke="rgb(60, 60, 60)" stroke-width="1.3333333730697632px" opacity="0.25"></line><line x1="0" y1="76.21205357142858" x2="281.125" y2="76.21205357142858" fill="rgb(0, 0, 0)" stroke="rgb(60, 60, 60)" stroke-width="1.3333333730697632px" opacity="0.25"></line><line x1="0" y1="63.51004464285714" x2="281.125" y2="63.51004464285714" fill="rgb(0, 0, 0)" stroke="rgb(60, 60, 60)" stroke-width="1.3333333730697632px" opacity="0.25"></line><line x1="0" y1="50.808035714285694" x2="281.125" y2="50.808035714285694" fill="rgb(0, 0, 0)" stroke="rgb(60, 60, 60)" stroke-width="1.3333333730697632px" opacity="0.25"></line><line x1="0" y1="38.10602678571425" x2="281.125" y2="38.10602678571425" fill="rgb(0, 0, 0)" stroke="rgb(60, 60, 60)" stroke-width="1.3333333730697632px" opacity="0.25"></line><line x1="0" y1="25.404017857142804" x2="281.125" y2="25.404017857142804" fill="rgb(0, 0, 0)" stroke="rgb(60, 60, 60)" stroke-width="1.3333333730697632px" opacity="0.25"></line><line x1="0" y1="12.702008928571445" x2="281.125" y2="12.702008928571445" fill="rgb(0, 0, 0)" stroke="rgb(60, 60, 60)" stroke-width="1.3333333730697632px" opacity="0.25"></line><line x1="0" y1="0" x2="281.125" y2="0" fill="rgb(0, 0, 0)" stroke="rgb(60, 60, 60)" stroke-width="1.3333333730697632px" opacity="0.25"></line></g></g></g><g><g><line x1="0" y1="381.0602678571429" x2="281.125" y2="381.0602678571429" fill="rgb(0, 0, 0)" stroke="rgb(153, 153, 153)" stroke-width="2px"></line></g></g><g><g><line x1="23.427083333333332" y1="0" x2="23.427083333333332" y2="177.828125" fill="rgb(0, 0, 0)" stroke="rgb(153, 153, 153)" stroke-width="2px"></line></g></g><g><g><g><g><g><path stroke="rgb(0, 119, 187)" stroke-width="2.6666667461395264px" d="M23.427083333333332,-9.020392252132297L28.1125,11.487756193382637L32.797916666666666,33.73368764631505L37.483333333333334,45.562452813008775L42.168749999999996,62.21409271303021L46.854166666666664,77.85497160041692L51.53958333333333,88.91563321749558L56.225,97.5362199502048L60.91041666666667,100.17797507619409L65.59583333333333,104.25420917782088L70.28125,108.04897782891578L74.96666666666667,111.36027529640324L79.65208333333334,116.71552822175589L84.33749999999999,118.39810891998397L89.02291666666666,119.31556248749516L93.70833333333333,116.03264459834487L98.39375,116.60860961650823L103.07916666666667,119.47880721270538L107.76458333333333,124.63731375409922L112.45,126.8788138884678L117.13541666666667,125.54123215695752L121.82083333333334,124.30954997571033L126.50625000000001,129.42887586136942L131.19166666666666,132.59933065186607L135.87708333333333,131.99029785501727L140.5625,131.9016674819636L145.24791666666667,134.47931928284444L149.93333333333334,137.49752780629623L154.61875,139.50194352790012L159.30416666666667,136.32061132224516L163.98958333333334,134.3124507984495L168.67499999999998,139.67712041739372L173.36041666666668,137.33580371796535L178.04583333333332,137.21010939808764L182.73125000000002,139.582377903051L187.41666666666666,141.93426758508912L192.10208333333333,142.62731594178447L196.7875,145.06527238785898L201.47291666666666,143.28966998921072L206.15833333333333,140.78856923179404L210.84375,142.49366165105863L215.52916666666667,144.92599582064275L220.21458333333334,147.78658165484615L224.9,146.80227113218126L229.58541666666667,151.0157866722901L234.27083333333334,149.2159941019776L238.95624999999998,152.81651048063452L243.64166666666668,154.78189766868104L248.32708333333332,155.34803142982017L253.01250000000002,156.58075506460793" style="fill: none;" fill="none"></path></g><g><path stroke="rgb(255, 112, 67)" stroke-width="2.6666667461395264px" d="M28.1125,-33.99400364524422L32.797916666666666,3.6145426114646284L37.483333333333334,32.02837881627627L42.168749999999996,52.893657319051144L46.854166666666664,68.50848059850108L51.53958333333333,79.88221187138477L56.225,87.98508408307283L60.91041666666667,94.22896726247583L65.59583333333333,99.13308669971742L70.28125,103.05083518861473L74.96666666666667,106.57083611627854L79.65208333333334,109.6458390809611L84.33749999999999,112.43752837852874L89.02291666666666,115.00105976309662L93.70833333333333,117.39143604991673L98.39375,119.47403731935333L103.07916666666667,121.37255968927185L107.76458333333333,123.03903738911609L112.45,124.58235463913499L117.13541666666667,125.9070058131118L121.82083333333334,127.03741934642338L126.50625000000001,127.92932046395501L131.19166666666666,128.8978749902746L135.87708333333333,129.79124831484836L140.5625,130.77461080282274L145.24791666666667,131.8032528202717L149.93333333333334,132.694499694562L154.61875,133.66492009363273L159.30416666666667,134.90212321848412L163.98958333333334,136.20168479960495L168.67499999999998,137.4974147475477L173.36041666666668,138.59312940066874L178.04583333333332,139.75072030746531L182.73125000000002,140.69508713160207L187.41666666666666,141.687136138512L192.10208333333333,142.6027697206794L196.7875,143.57420969700118L201.47291666666666,144.54807732052802L206.15833333333333,145.42338121957928L210.84375,146.2653866641092L215.52916666666667,147.07279345965557L220.21458333333334,147.8132050464754L224.9,148.40624461188693L229.58541666666667,149.0198604687013L234.27083333333334,149.91637133159716L238.95624999999998,150.57102247348797L243.64166666666668,151.247808463269L248.32708333333332,151.9158665017026L253.01250000000002,152.61235594985905" style="fill: none;" fill="none"></path></g></g></g></g><g opacity="0.20000000298023224"><g><g><g><path stroke="rgb(0, 119, 187)" stroke-width="2.6666667461395264px" d="M23.427083333333332,-9.020392252132297L28.1125,23.792645260691614L32.797916666666666,55.08978184113012L37.483333333333334,59.47308064904064L42.168749999999996,83.95447376649827L46.854166666666664,99.4919378180722L51.53958333333333,104.73255630050386L56.225,110.10511816412742L60.91041666666667,104.07405075251258L65.59583333333333,110.30694175810952L70.28125,113.70671253318764L74.96666666666667,116.30920156304326L79.65208333333334,124.73092177982575L84.33749999999999,120.91868361657751L89.02291666666666,120.69066440653322L93.70833333333333,111.11058313266507L98.39375,117.47231341466042L103.07916666666667,123.78337486414239L107.76458333333333,132.37428771963874L112.45,130.24085920802983L117.13541666666667,123.53493291585308L121.82083333333334,122.46206723286636L126.50625000000001,137.10776361769865L131.19166666666666,137.3549752805515L135.87708333333333,131.07675298848855L140.5625,131.76872230035121L145.24791666666667,138.3457903886613L149.93333333333334,142.02483595781294L154.61875,142.50856526395572L159.30416666666667,131.54861477203667L163.98958333333334,131.30021067868387L168.67499999999998,147.72412377842036L173.36041666666668,133.82382894832907L178.04583333333332,137.0215679272743L182.73125000000002,143.14078055854355L187.41666666666666,145.46210204750034L192.10208333333333,143.66688846610487L196.7875,148.72220703433933L201.47291666666666,140.62626640112805L206.15833333333333,137.03691810402754L210.84375,145.0513002765365L215.52916666666667,148.57449707209267L220.21458333333334,152.07746040408634L224.9,145.32580534861023L229.58541666666667,157.33605998135837L234.27083333333334,146.51630524678953L238.95624999999998,158.21728504828312L243.64166666666668,157.72997845064052L248.32708333333332,156.19723207150986L253.01250000000002,158.42984051676467" style="fill: none;" fill="none"></path></g><g><path stroke="rgb(255, 112, 67)" stroke-width="2.6666667461395264px" d="M23.427083333333332,-107.52575092948979L28.1125,10.125044725303127L32.797916666666666,39.71874701790509L37.483333333333334,65.4430501931347L42.168749999999996,80.13536493227419L46.854166666666664,90.10940253036097L51.53958333333333,96.14682957130883L56.225,99.79914955528719L60.91041666666667,103.43748214022655L65.59583333333333,106.41513251832552L70.28125,108.89192423151273L74.96666666666667,111.83168181816913L79.65208333333334,114.24830310977995L84.33749999999999,116.61959311492475L89.02291666666666,118.84334350503715L93.70833333333333,120.9753146015906L98.39375,122.597057936447L103.07916666666667,124.21986120952559L107.76458333333333,125.53850006777793L112.45,126.8971894488537L117.13541666666667,127.89390992705843L121.82083333333334,128.7330024496519L126.50625000000001,129.26715453122077L131.19166666666666,130.35069530630219L135.87708333333333,131.1313019519938L140.5625,132.24965034119253L145.24791666666667,133.34621321443203L149.93333333333334,134.03136863772357L154.61875,135.1205497983444L159.30416666666667,136.7579272219778L163.98958333333334,138.15102674033758L168.67499999999998,139.44100941165482L173.36041666666668,140.23670124954413L178.04583333333332,141.48710658474425L182.73125000000002,142.11163732722136L187.41666666666666,143.1752096232958L192.10208333333333,143.97622007976418L196.7875,145.03136965246605L201.47291666666666,146.00887875039396L206.15833333333333,146.73633706523106L210.84375,147.52839482921576L215.52916666666667,148.28390365200383L220.21458333333334,148.92382242617063L224.9,149.2958039597475L229.58541666666667,149.9402842537633L234.27083333333334,151.26113762580124L238.95624999999998,151.552999186263L243.64166666666668,152.26298744790256L248.32708333333332,152.91795355933053L253.01250000000002,153.65709012207975" style="fill: none;" fill="none"></path></g></g></g></g></g></g><g transform="translate(48, 177)" clip-path="url(#clip_1)"><clipPath id="clip_1"><rect width="281" height="22"></rect></clipPath><g><g><line x1="0" y1="0" x2="0" y2="5" style="visibility: inherit;" fill="rgb(0, 0, 0)" stroke="rgb(204, 204, 204)" stroke-width="1.3333333730697632px"></line><line x1="23.427083333333332" y1="0" x2="23.427083333333332" y2="5" style="visibility: inherit;" fill="rgb(0, 0, 0)" stroke="rgb(204, 204, 204)" stroke-width="1.3333333730697632px"></line><line x1="46.854166666666664" y1="0" x2="46.854166666666664" y2="5" style="visibility: inherit;" fill="rgb(0, 0, 0)" stroke="rgb(204, 204, 204)" stroke-width="1.3333333730697632px"></line><line x1="70.28125" y1="0" x2="70.28125" y2="5" style="visibility: inherit;" fill="rgb(0, 0, 0)" stroke="rgb(204, 204, 204)" stroke-width="1.3333333730697632px"></line><line x1="93.70833333333333" y1="0" x2="93.70833333333333" y2="5" style="visibility: inherit;" fill="rgb(0, 0, 0)" stroke="rgb(204, 204, 204)" stroke-width="1.3333333730697632px"></line><line x1="117.13541666666667" y1="0" x2="117.13541666666667" y2="5" style="visibility: inherit;" fill="rgb(0, 0, 0)" stroke="rgb(204, 204, 204)" stroke-width="1.3333333730697632px"></line><line x1="140.5625" y1="0" x2="140.5625" y2="5" style="visibility: inherit;" fill="rgb(0, 0, 0)" stroke="rgb(204, 204, 204)" stroke-width="1.3333333730697632px"></line><line x1="163.98958333333334" y1="0" x2="163.98958333333334" y2="5" style="visibility: inherit;" fill="rgb(0, 0, 0)" stroke="rgb(204, 204, 204)" stroke-width="1.3333333730697632px"></line><line x1="187.41666666666666" y1="0" x2="187.41666666666666" y2="5" style="visibility: inherit;" fill="rgb(0, 0, 0)" stroke="rgb(204, 204, 204)" stroke-width="1.3333333730697632px"></line><line x1="210.84375" y1="0" x2="210.84375" y2="5" style="visibility: inherit;" fill="rgb(0, 0, 0)" stroke="rgb(204, 204, 204)" stroke-width="1.3333333730697632px"></line><line x1="234.27083333333334" y1="0" x2="234.27083333333334" y2="5" style="visibility: inherit;" fill="rgb(0, 0, 0)" stroke="rgb(204, 204, 204)" stroke-width="1.3333333730697632px"></line><line x1="257.69791666666663" y1="0" x2="257.69791666666663" y2="5" style="visibility: inherit;" fill="rgb(0, 0, 0)" stroke="rgb(204, 204, 204)" stroke-width="1.3333333730697632px"></line><line x1="281.125" y1="0" x2="281.125" y2="5" style="visibility: inherit;" fill="rgb(0, 0, 0)" stroke="rgb(204, 204, 204)" stroke-width="1.3333333730697632px"></line></g><g transform="translate(0, 8)"><text x="0" y="0" dx="0em" dy="0.95em" style="text-anchor: middle; visibility: hidden; font-family: &quot;Helvetica Neue&quot;, sans-serif; font-size: 16px; font-weight: 200;" fill="rgb(50, 49, 63)" stroke="none" stroke-width="1.3333333730697632px">-5</text><text x="23.427083333333332" y="0" dx="0em" dy="0.95em" style="text-anchor: middle; visibility: inherit; font-family: &quot;Helvetica Neue&quot;, sans-serif; font-size: 16px; font-weight: 200;" fill="rgb(50, 49, 63)" stroke="none" stroke-width="1.3333333730697632px">0</text><text x="46.854166666666664" y="0" dx="0em" dy="0.95em" style="text-anchor: middle; visibility: inherit; font-family: &quot;Helvetica Neue&quot;, sans-serif; font-size: 16px; font-weight: 200;" fill="rgb(50, 49, 63)" stroke="none" stroke-width="1.3333333730697632px">5</text><text x="70.28125" y="0" dx="0em" dy="0.95em" style="text-anchor: middle; visibility: inherit; font-family: &quot;Helvetica Neue&quot;, sans-serif; font-size: 16px; font-weight: 200;" fill="rgb(50, 49, 63)" stroke="none" stroke-width="1.3333333730697632px">10</text><text x="93.70833333333333" y="0" dx="0em" dy="0.95em" style="text-anchor: middle; visibility: inherit; font-family: &quot;Helvetica Neue&quot;, sans-serif; font-size: 16px; font-weight: 200;" fill="rgb(50, 49, 63)" stroke="none" stroke-width="1.3333333730697632px">15</text><text x="117.13541666666667" y="0" dx="0em" dy="0.95em" style="text-anchor: middle; visibility: inherit; font-family: &quot;Helvetica Neue&quot;, sans-serif; font-size: 16px; font-weight: 200;" fill="rgb(50, 49, 63)" stroke="none" stroke-width="1.3333333730697632px">20</text><text x="140.5625" y="0" dx="0em" dy="0.95em" style="text-anchor: middle; visibility: inherit; font-family: &quot;Helvetica Neue&quot;, sans-serif; font-size: 16px; font-weight: 200;" fill="rgb(50, 49, 63)" stroke="none" stroke-width="1.3333333730697632px">25</text><text x="163.98958333333334" y="0" dx="0em" dy="0.95em" style="text-anchor: middle; visibility: inherit; font-family: &quot;Helvetica Neue&quot;, sans-serif; font-size: 16px; font-weight: 200;" fill="rgb(50, 49, 63)" stroke="none" stroke-width="1.3333333730697632px">30</text><text x="187.41666666666666" y="0" dx="0em" dy="0.95em" style="text-anchor: middle; visibility: inherit; font-family: &quot;Helvetica Neue&quot;, sans-serif; font-size: 16px; font-weight: 200;" fill="rgb(50, 49, 63)" stroke="none" stroke-width="1.3333333730697632px">35</text><text x="210.84375" y="0" dx="0em" dy="0.95em" style="text-anchor: middle; visibility: inherit; font-family: &quot;Helvetica Neue&quot;, sans-serif; font-size: 16px; font-weight: 200;" fill="rgb(50, 49, 63)" stroke="none" stroke-width="1.3333333730697632px">40</text><text x="234.27083333333334" y="0" dx="0em" dy="0.95em" style="text-anchor: middle; visibility: inherit; font-family: &quot;Helvetica Neue&quot;, sans-serif; font-size: 16px; font-weight: 200;" fill="rgb(50, 49, 63)" stroke="none" stroke-width="1.3333333730697632px">45</text><text x="257.69791666666663" y="0" dx="0em" dy="0.95em" style="text-anchor: middle; visibility: inherit; font-family: &quot;Helvetica Neue&quot;, sans-serif; font-size: 16px; font-weight: 200;" fill="rgb(50, 49, 63)" stroke="none" stroke-width="1.3333333730697632px">50</text><text x="281.125" y="0" dx="0em" dy="0.95em" style="text-anchor: middle; visibility: hidden; font-family: &quot;Helvetica Neue&quot;, sans-serif; font-size: 16px; font-weight: 200;" fill="rgb(50, 49, 63)" stroke="none" stroke-width="1.3333333730697632px">55</text></g><line x1="0" y1="0" x2="281.125" y2="0" fill="rgb(0, 0, 0)" stroke="rgb(204, 204, 204)" stroke-width="1.3333333730697632px"></line></g></g></g></g></svg>